# xmcd
#
# Track frame offsets: 
#        150
#        12677
#        31165
#        49338
#        64891
#        85701
#        99765
#        109402
#        126378
#        144450
#        161690
#        179160
#        198598
#        212101
#
# Disc length: 3060 seconds
#
# Revision: 0
# Processed by: cddbd v1.5.2PL0 Copyright (c) Steve Scherf et al.
# Submitted via: ExactAudioCopy v0.99pb4
#
DISCID=d10bf20e
DTITLE=David West - Broken Down Believers
DYEAR=2001
DGENRE=Country
TTITLE0=Miles from Nowhere
TTITLE1=Home to My Heart
TTITLE2=You´re Not Standing Like You Used To
TTITLE3=Once is Enough for Me
TTITLE4=That Lost HorizonI
TTITLE5=Taravana
TTITLE6=Running Wild
TTITLE7=Never Alone
TTITLE8=Broken Compass
TTITLE9=I´d Be Gone
TTITLE10=I Thought I Heard You Calling
TTITLE11=Stranded (In the Wake of Your Goodbye)
TTITLE12=Under Cover of Darkness
TTITLE13=Beyond the Grave
EXTD=
EXTT0=
EXTT1=
EXTT2=
EXTT3=
EXTT4=
EXTT5=
EXTT6=
EXTT7=
EXTT8=
EXTT9=
EXTT10=
EXTT11=
EXTT12=
EXTT13=
PLAYORDER=
